<svg xmlns="http://www.w3.org/2000/svg" xmlns:xlink="http://www.w3.org/1999/xlink" version="1.0" viewBox="0 0 56 56">
  <defs>
    <path id="a" fill="none" stroke="#000" d="M2 66.9 2.7 2l64.9.7-.7 64.9L2 66.9zm65.5-53.3-10.8-.1-.1 10.8 10.8.1M46 2.5l-.4 32.4 21.6.2m-32-32.7-.5 43.2 32.4.4M24.4 2.3l-.6 54 43.2.5M12.8 67l.6-54-10.8-.2"/>
  </defs>
  <mask id="b">
    <path fill="#fff" d="M0 0h60v60H0z"/>
    <svg width="46" height="46" transform="translate(5 5)">
      <svg xmlns="http://www.w3.org/2000/svg" viewBox="0 0 70 70">
        <use xlink:href="#a" stroke-width="4"/>
      </svg>
    </svg>
  </mask>
  <g class="layer">
    <g fill="#fff" class="iconbordersvg" data-gra="graph-icon-name">
      <path fill="none" stroke="#fff" stroke-width="4" d="M0 0h56v56H0z" class="i-icon-bg" data-gra="graph-name-bg"/>
      <g data-gra="graph-icon" mask="url(#b)">
        <path d="M1 0h56v56H0z" class="i-icon-bg" data-gra="graph-name-bg"/>
      </g>
    </g>
  </g>
</svg>
