<svg width="132" height="50" viewBox="0 0 132 50" fill="none" xmlns="http://www.w3.org/2000/svg">
<path d="M29.7944 24.144C29.6441 22.236 29.7441 19.2735 29.1939 18.2189C28.6437 17.1643 27.2418 16.0095 26.5911 15.5578C25.9404 15.1061 24.639 14.8546 24.639 14.8546C24.639 14.8546 26.6408 16.0095 27.392 16.8629C28.1427 17.7163 28.5934 19.022 28.5934 19.022C28.5934 19.022 27.5423 18.3188 26.6916 18.2688C25.8409 18.2184 24.9399 19.1727 24.9399 19.8255C24.9399 20.4783 25.8911 21.8842 25.8911 21.8842C25.8911 21.8842 23.5888 21.8842 23.4888 22.0349C23.3888 22.1856 24.5399 23.2402 24.6399 23.4408C24.7399 23.6415 24.4897 23.9933 24.4897 23.9933C24.4897 23.9933 23.639 24.5458 22.6878 24.6965C21.7367 24.8472 20.6841 25.1796 20.6841 25.1796C20.6841 25.1796 20.3353 24.144 20.4353 23.7423C20.5338 23.3467 20.9717 22.6597 20.9855 22.6383C20.9409 22.664 18.5343 24.0637 18.6334 26.2028C18.7324 28.3447 19.9651 31.0805 19.9841 31.1233C19.93 31.0714 16.3794 27.6524 16.6045 25.1796C16.831 22.6882 17.9324 22.4871 17.9324 22.4871C17.9324 22.4871 15.7301 21.8343 15.9803 20.629C16.2306 19.4237 17.1315 18.972 17.7822 18.972C18.4329 18.972 19.8343 20.0266 19.8343 20.0266L22.1869 20.1269C22.1869 20.1269 21.4362 18.1685 20.0348 17.9679C18.6334 17.7672 15.8306 18.0682 14.8297 19.826C13.8287 21.5832 13.1278 23.2906 13.1278 23.2906C13.1278 23.2906 12.6776 20.1274 13.178 18.9221C13.6704 17.7358 14.4543 16.6955 14.4789 16.6637C14.4481 16.6913 13.3259 17.713 13.1283 17.4159C12.9283 17.1144 11.9771 15.9595 11.7771 14.353C11.5771 12.7459 11.7269 10.9886 11.7269 10.9886C11.7269 10.9886 14.7301 12.7459 15.2306 13.3488C15.7311 13.9512 16.0566 14.9806 16.0566 14.9806C16.1069 14.8802 17.0576 14.5289 17.558 14.3782C18.0585 14.2274 18.8092 14.2274 18.8092 14.2274C18.8092 14.2274 17.2576 12.1687 16.2064 11.8174C15.1552 11.466 13.5538 11.215 12.3022 9.60791C11.051 8.00087 10.7506 6.29398 10.4501 4.98837C10.1544 3.70321 10.4411 0.66029 10.4496 0.565674C10.425 0.672176 9.50367 4.70643 9.84964 6.14326C10.1999 7.59958 10.4501 8.65414 10.4501 8.65414C10.4501 8.65414 9.5994 7.90102 9.34917 7.19782C9.09894 6.49462 8.79847 4.73733 8.79847 4.73733C8.79847 4.73733 8.69847 8.45302 9.5994 9.40727C10.5003 10.3615 10.8506 10.7628 10.8506 11.0642C10.8506 11.3657 10.8003 14.7799 11.0008 15.5835C11.2008 16.387 12.4524 18.7467 12.4524 18.7467C12.4524 18.7467 11.251 21.1568 11.3013 22.9145C11.3515 24.6718 11.8017 27.2326 11.8017 27.2326L12.8027 25.3246C12.8027 25.3246 12.6027 27.584 15.2552 30.1453C17.9078 32.7061 19.3092 34.0621 19.6599 35.3173C20.0101 36.5725 19.6599 38.092 19.6599 38.092C19.6599 38.092 21.612 35.9701 22.2627 32.9072C22.9134 29.8443 23.0637 27.7856 23.0637 27.7856C23.0637 27.7856 21.9376 27.5093 21.7874 26.4548C21.6371 25.4002 24.7404 24.5967 24.7404 24.5967C24.7404 24.5967 27.0427 25.7012 26.0418 26.8061C25.0409 27.9106 24.2902 27.8607 24.2902 27.8607C24.2902 27.8607 24.2399 31.4761 24.7906 32.9823C25.3413 34.4886 27.093 37.2505 27.093 37.2505C27.093 37.2505 26.7925 32.3799 27.3934 30.7229C27.9939 29.066 29.946 26.053 29.7958 24.145L29.7944 24.144ZM25.2394 24.194C25.2394 24.194 25.0892 23.6415 25.1394 23.3405C25.1897 23.0391 26.4409 22.4367 26.465 22.1376C26.4892 21.8381 25.4399 20.0266 25.4399 20.0266L26.7911 19.9762C26.7911 19.9762 27.6418 19.3234 27.9238 19.3267C28.2058 19.33 28.6432 19.8754 28.5929 20.4783C28.5427 21.0807 26.6408 21.9346 26.6408 21.9346C26.6408 21.9346 26.9911 22.286 27.3915 23.2402C27.792 24.1944 27.0413 24.9476 27.0413 24.9476L25.2394 24.1944V24.194Z" fill="#F9F9F9"/>
<path d="M22.7868 13.9004C22.7868 13.85 24.1882 11.8416 25.6896 11.2392C27.191 10.6368 28.5005 9.24659 28.5967 8.51058C28.6929 7.77457 28.9431 6.01681 28.7929 5.36401C28.6427 4.71121 28.092 3.25488 28.092 3.25488C28.092 3.25488 29.0431 4.51009 29.2431 5.36401C29.4431 6.21745 29.3431 8.22626 29.3431 8.22626C29.3431 8.22626 29.6597 7.70706 29.8019 6.98722C29.9441 6.26785 29.8019 5.70063 29.8019 5.70063C29.8019 5.70063 30.3441 8.12546 29.9441 9.0293C29.5436 9.93315 29.1431 10.1842 29.2431 11.088C29.3431 11.9919 29.1431 13.1468 29.0431 13.6488C28.9431 14.1509 28.092 15.1551 28.092 15.1551C28.092 15.1551 28.6503 13.1301 28.5962 12.0589C28.5422 10.9877 28.492 10.586 28.492 10.586C28.492 10.586 25.7892 12.6447 25.2385 13.3978C24.6878 14.1509 24.4375 14.7034 24.4375 14.7034L22.7859 13.8999L22.7868 13.9004Z" fill="#F9F9F9"/>
<path d="M29.8943 26.4539C29.8943 26.4539 29.5441 29.2158 30.1445 30.5209C30.745 31.8265 32.2469 32.7803 32.2469 32.7803C32.2469 32.7803 33.0478 31.9768 34.0487 32.3286C35.0497 32.68 36.7515 34.0859 36.7515 34.0859C36.7515 34.0859 35.7004 36.2954 35.0999 37.0989C34.4994 37.9024 31.6962 41.2163 31.1459 41.7688C30.5957 42.3213 26.6915 45.1835 26.6915 45.1835L25.0399 42.7735C25.0399 42.7735 21.7665 43.538 19.2987 41.5739C16.8315 39.6098 15.9305 38.3042 15.5301 35.9445C15.1296 33.5848 16.1808 32.1784 16.1808 32.1784L13.378 29.3161C13.378 29.3161 11.6263 33.6846 13.2277 36.8483C14.8296 40.0115 15.5803 40.0115 17.1319 41.4179C18.6836 42.8239 20.9357 45.0333 21.3361 45.5858C21.7366 46.1383 22.0371 47.0421 22.0371 47.0421C22.0371 47.0421 15.2301 44.4309 11.8263 39.5603C8.42259 34.6897 5.97049 29.9195 4.61886 24.446C3.26769 18.9726 3.26769 14.7049 3.31746 14.7049C3.36722 14.7049 9.62399 12.6461 9.62399 12.6461L9.72399 11.3909L8.72306 10.3364L0.0634766 13.1972C0.0634766 13.1972 0.964411 14.9545 1.01465 15.7081C1.06488 16.4617 1.76535 24.9976 3.86768 30.3702C5.97002 35.7429 8.22212 38.8062 10.0742 41.1659C11.9263 43.5261 16.5808 46.7896 17.5822 47.2917C18.5831 47.7938 22.4683 49.7503 22.4683 49.7503C22.4683 49.7503 28.8938 47.392 32.2971 43.8271C35.7008 40.2621 38.6539 36.747 39.9548 33.1317C41.2562 29.5163 42.7576 24.3443 43.1581 21.482C43.5585 18.6198 44.1092 14.8038 44.259 14.4524C44.4092 14.101 44.7595 13.3479 44.7595 13.3479L31.1455 8.67798C31.1455 8.67798 31.1957 9.38118 31.0952 9.68214C30.9948 9.98311 30.3943 10.8874 30.3943 10.8874L41.606 14.7034C41.606 14.7034 41.0553 21.5828 40.705 22.9384C40.3548 24.2939 38.0022 31.6753 38.0022 31.6753C38.0022 31.6753 36.1004 30.5205 34.3483 30.2694C32.5966 30.0184 31.8455 30.0688 30.9948 28.6125C30.1441 27.1561 29.8938 26.4534 29.8938 26.4534L29.8943 26.4539Z" fill="#F9F9F9"/>
<path d="M13.4775 8.87908C13.4775 8.92948 22.4679 5.849 22.4679 5.849L27.6423 7.52356L26.4394 9.57563L22.4115 8.23009L15.8799 10.4866C15.8799 10.4866 14.5287 9.93412 14.1282 9.58276C13.7278 9.2314 13.4775 8.87956 13.4775 8.87956V8.87908Z" fill="#F9F9F9"/>
<path d="M62.2424 15.5031C62.9655 15.5354 63.7641 15.5516 64.6382 15.5516C65.6851 15.5516 66.7157 15.5516 67.7301 15.5516C68.7554 15.5516 69.84 15.5354 70.9839 15.5031V17.1057H69.8346C69.3921 17.1057 69.0521 17.1434 68.8147 17.219C68.5773 17.2945 68.3992 17.397 68.2805 17.5265C68.1726 17.6452 68.1078 17.7909 68.0863 17.9636C68.0647 18.1255 68.0539 18.2982 68.0539 18.4816V34.54H75.4194C75.6784 34.54 75.878 34.4213 76.0183 34.1839C76.1586 33.9465 76.2611 33.6011 76.3259 33.1479C76.3907 32.6946 76.4284 32.1442 76.4392 31.4967C76.45 30.8384 76.4554 30.0937 76.4554 29.2628H78.317V36.3854H62.2424V34.7828H63.068C63.5752 34.7828 63.9637 34.7451 64.2335 34.6695C64.5141 34.594 64.7138 34.4861 64.8325 34.3458C64.962 34.2055 65.0375 34.049 65.0591 33.8763C65.0807 33.6929 65.0915 33.4932 65.0915 33.2774V18.6597C65.0915 18.5734 65.0915 18.487 65.0915 18.4007C65.1023 18.3143 65.1077 18.228 65.1077 18.1417C65.1077 17.9798 65.0861 17.8341 65.0429 17.7046C65.0106 17.5751 64.9242 17.4672 64.7839 17.3808C64.6436 17.2945 64.4386 17.2298 64.1688 17.1866C63.899 17.1326 63.5321 17.1057 63.068 17.1057H62.2424V15.5031Z" fill="#F9F9F9"/>
<path d="M80.5509 40.7885C80.8315 40.8317 81.1013 40.8749 81.3603 40.918C81.5762 40.9504 81.7974 40.9774 82.024 40.999C82.2507 41.0206 82.4395 41.0314 82.5906 41.0314C82.8172 41.0314 83.0277 40.9828 83.2219 40.8857C83.427 40.7885 83.6266 40.6267 83.8209 40.4C84.0259 40.1842 84.231 39.8928 84.436 39.5259C84.6519 39.1698 84.8785 38.7273 85.1159 38.1985L85.7311 36.5797C84.749 34.4537 83.8587 32.5381 83.0601 30.833C82.7147 30.1099 82.3748 29.3923 82.0402 28.68C81.7165 27.9677 81.4197 27.3094 81.1499 26.7051C80.8801 26.0899 80.6535 25.5881 80.47 25.1996C80.2865 24.8003 80.1732 24.5575 80.1301 24.4711C80.0113 24.2121 79.9034 24.0125 79.8063 23.8722C79.7092 23.7211 79.5959 23.6078 79.4664 23.5322C79.3476 23.4459 79.1912 23.392 78.9969 23.3704C78.8134 23.3488 78.5652 23.338 78.2523 23.338H77.6695V21.8973C78.2846 21.8973 78.889 21.9027 79.4825 21.9135C80.0869 21.9243 80.6535 21.9296 81.1823 21.9296C81.6895 21.9296 82.2615 21.9243 82.8982 21.9135C83.5457 21.9027 84.2742 21.8973 85.0836 21.8973V23.338H83.659C83.3676 23.338 83.1356 23.392 82.9629 23.4999C82.8011 23.597 82.7147 23.7751 82.7039 24.0341C82.7147 24.2499 82.7633 24.4927 82.8496 24.7625C82.936 25.0323 83.0385 25.3129 83.1572 25.6043C83.2867 25.8849 83.4162 26.1709 83.5457 26.4623C83.686 26.7428 83.8155 27.0126 83.9342 27.2717L87.0261 33.8763C87.4578 32.7863 87.8895 31.7125 88.3211 30.6549C88.5046 30.2017 88.6935 29.7376 88.8877 29.2628C89.082 28.7771 89.2762 28.2969 89.4705 27.822C89.6647 27.3364 89.8482 26.867 90.0209 26.4137C90.2043 25.9604 90.3716 25.5503 90.5227 25.1834C90.6198 24.946 90.6954 24.7409 90.7493 24.5683C90.8033 24.3956 90.8356 24.2337 90.8464 24.0826C90.8356 23.9208 90.7979 23.7913 90.7331 23.6941C90.6792 23.597 90.5712 23.5215 90.4094 23.4675C90.2475 23.4135 90.0155 23.3812 89.7133 23.3704C89.4111 23.3488 89.0172 23.338 88.5316 23.338V21.8973C89.0928 21.8973 89.6324 21.9027 90.1504 21.9135C90.6792 21.9243 91.2026 21.9296 91.7206 21.9296C92.2926 21.9296 92.8807 21.9243 93.4851 21.9135C94.0894 21.9027 94.7046 21.8973 95.3305 21.8973V23.338C94.8664 23.338 94.4995 23.3542 94.2297 23.3866C93.9707 23.4189 93.7603 23.4945 93.5984 23.6132C93.4365 23.7211 93.3016 23.883 93.1937 24.0988C93.0858 24.3039 92.9509 24.5845 92.789 24.9406L87.2042 38.1175C86.8157 39.0349 86.4487 39.8011 86.1034 40.4162C85.758 41.0314 85.4073 41.5224 85.0512 41.8893C84.695 42.267 84.3173 42.5314 83.918 42.6825C83.5295 42.8444 83.087 42.9253 82.5906 42.9253C82.3532 42.9253 82.1104 42.9038 81.8622 42.8606C81.6139 42.8174 81.3819 42.7689 81.1661 42.7149C80.9179 42.6609 80.675 42.5908 80.4376 42.5045L80.5509 40.7885Z" fill="#F9F9F9"/>
<path d="M95.6704 34.9447C96.2748 34.9447 96.7442 34.9339 97.0788 34.9123C97.4133 34.8908 97.6615 34.8476 97.8234 34.7828C97.9853 34.7181 98.0824 34.6317 98.1148 34.5238C98.1472 34.4159 98.1634 34.2756 98.1634 34.1029V23.8722C98.1634 23.7427 98.1256 23.6402 98.0501 23.5646C97.9853 23.4891 97.8612 23.4351 97.6777 23.4027C97.5051 23.3704 97.2622 23.3542 96.9493 23.3542C96.6471 23.3434 96.2478 23.338 95.7514 23.338V21.8973C96.7119 21.8973 97.5968 21.8919 98.4062 21.8811C99.2156 21.8703 100.009 21.8487 100.786 21.8163V24.0988C101.52 23.2678 102.361 22.6365 103.311 22.2048C104.272 21.7624 105.291 21.5357 106.371 21.5249C107.946 21.5357 109.155 21.9674 109.997 22.82C110.838 23.6618 111.259 25 111.259 26.8346V34.281C111.259 34.4537 111.297 34.5832 111.373 34.6695C111.448 34.7559 111.572 34.8206 111.745 34.8638C111.928 34.8962 112.166 34.9177 112.457 34.9285C112.749 34.9285 113.105 34.9339 113.526 34.9447V36.3854C113.267 36.3854 113.008 36.3854 112.749 36.3854C112.5 36.3854 112.236 36.3854 111.955 36.3854C111.686 36.3854 111.394 36.3854 111.081 36.3854C110.779 36.3746 110.439 36.3639 110.061 36.3531C109.274 36.3531 108.567 36.3585 107.941 36.3692C107.315 36.38 106.689 36.3854 106.063 36.3854V34.9447C106.678 34.9447 107.153 34.9339 107.488 34.9123C107.822 34.8908 108.065 34.853 108.216 34.799C108.367 34.7343 108.453 34.6587 108.475 34.5724C108.507 34.4753 108.524 34.3512 108.524 34.2001V27.7735C108.524 27.0504 108.48 26.3975 108.394 25.8147C108.319 25.2212 108.167 24.7355 107.941 24.3578C107.725 23.9801 107.423 23.6995 107.034 23.5161C106.657 23.3218 106.166 23.2193 105.561 23.2085C104.978 23.2193 104.444 23.3164 103.959 23.4999C103.473 23.6833 103.036 23.91 102.647 24.1798C102.27 24.4388 101.935 24.7194 101.644 25.0215C101.363 25.3129 101.12 25.5881 100.915 25.8471C100.883 26.6457 100.867 27.4659 100.867 28.3077V34.1839C100.867 34.3781 100.91 34.5292 100.996 34.6371C101.093 34.7343 101.239 34.8098 101.433 34.8638C101.638 34.9069 101.892 34.9339 102.194 34.9447C102.507 34.9447 102.885 34.9447 103.327 34.9447V36.3854C103.047 36.3854 102.772 36.3854 102.502 36.3854C102.232 36.3854 101.951 36.3854 101.66 36.3854C101.379 36.3854 101.072 36.3854 100.737 36.3854C100.413 36.3746 100.057 36.3639 99.6688 36.3531C98.8595 36.3531 98.1418 36.3585 97.5159 36.3692C96.8899 36.38 96.2748 36.3854 95.6704 36.3854V34.9447Z" fill="#F9F9F9"/>
<path d="M114.691 21.8973C114.734 21.8973 114.88 21.9027 115.128 21.9135C115.387 21.9135 115.684 21.9135 116.019 21.9135C116.364 21.9135 116.709 21.9189 117.055 21.9296C117.4 21.9296 117.686 21.9296 117.913 21.9296C118.182 21.9296 118.436 21.9296 118.673 21.9296C118.911 21.9296 119.154 21.9296 119.402 21.9296C119.65 21.9189 119.909 21.9135 120.179 21.9135C120.459 21.9027 120.762 21.8973 121.085 21.8973L121.118 23.0952C120.513 23.106 120.087 23.1383 119.839 23.1923C119.591 23.2355 119.467 23.3272 119.467 23.4675C119.467 23.6186 119.542 23.7805 119.693 23.9531C119.844 24.115 120.028 24.3201 120.244 24.5683L122.947 27.6602L125.068 25.1348C125.391 24.7463 125.656 24.4226 125.861 24.1636C126.066 23.8938 126.168 23.6779 126.168 23.5161C126.168 23.3542 126.055 23.2463 125.828 23.1923C125.613 23.1276 125.246 23.0952 124.728 23.0952L124.744 21.8973C125.273 21.8973 125.764 21.9027 126.217 21.9135C126.67 21.9243 127.102 21.9296 127.512 21.9296C128.019 21.9296 128.516 21.9296 129.001 21.9296C129.498 21.9189 130.075 21.9081 130.733 21.8973V23.338H130.296C129.929 23.338 129.643 23.3542 129.438 23.3866C129.233 23.4081 129.039 23.4891 128.856 23.6294C128.672 23.7589 128.456 23.9693 128.208 24.2607C127.971 24.5413 127.631 24.9568 127.188 25.5072C126.972 25.7662 126.703 26.0899 126.379 26.4784C126.055 26.8562 125.742 27.2231 125.44 27.5792C125.084 28.0001 124.722 28.4264 124.355 28.8581C125.122 29.7322 125.812 30.5146 126.427 31.2053C126.686 31.4967 126.945 31.7881 127.204 32.0795C127.463 32.36 127.69 32.6137 127.884 32.8403C128.089 33.0669 128.257 33.2612 128.386 33.4231C128.516 33.5849 128.591 33.6713 128.613 33.6821C128.893 34.0058 129.115 34.254 129.277 34.4267C129.449 34.5886 129.616 34.7127 129.778 34.799C129.94 34.8746 130.124 34.9177 130.329 34.9285C130.534 34.9393 130.82 34.9447 131.187 34.9447V36.3854C130.744 36.3854 130.286 36.38 129.811 36.3692C129.347 36.3585 128.785 36.3531 128.127 36.3531C128.073 36.3531 127.922 36.3585 127.674 36.3692C127.426 36.3692 127.14 36.3692 126.816 36.3692C126.503 36.3692 126.185 36.3746 125.861 36.3854C125.548 36.3854 125.3 36.3854 125.116 36.3854V35.1875C125.742 35.1875 126.158 35.085 126.363 34.88C126.244 34.6965 126.104 34.4915 125.942 34.2648C125.78 34.0274 125.602 33.7846 125.408 33.5364C125.213 33.2882 125.014 33.0345 124.809 32.7755C124.604 32.5165 124.399 32.2683 124.194 32.0309C123.719 31.4697 123.217 30.8923 122.688 30.2988C122.051 31.0542 121.474 31.7287 120.956 32.3223C120.74 32.5813 120.524 32.8349 120.308 33.0831C120.103 33.3205 119.915 33.5418 119.742 33.7468C119.58 33.9411 119.445 34.1029 119.337 34.2324C119.229 34.3619 119.17 34.4321 119.159 34.4429C119.137 34.5292 119.127 34.5832 119.127 34.6048C119.127 34.7882 119.245 34.9285 119.483 35.0257C119.731 35.112 120.147 35.1659 120.729 35.1875L120.713 36.3854C120.67 36.3854 120.53 36.3854 120.292 36.3854C120.055 36.3746 119.774 36.3692 119.45 36.3692C119.137 36.3585 118.808 36.3531 118.463 36.3531C118.118 36.3531 117.815 36.3531 117.556 36.3531C117.233 36.3531 116.936 36.3585 116.666 36.3692C116.407 36.3692 116.159 36.3692 115.921 36.3692C115.684 36.3692 115.452 36.3746 115.225 36.3854C114.999 36.3854 114.756 36.3854 114.497 36.3854V34.9447H115.258C115.463 34.9447 115.641 34.9285 115.792 34.8962C115.943 34.853 116.089 34.7882 116.229 34.7019C116.369 34.6048 116.515 34.4753 116.666 34.3134C116.817 34.1515 116.995 33.9465 117.2 33.6982C117.211 33.6767 117.276 33.5903 117.395 33.4392C117.524 33.2774 117.681 33.0885 117.864 32.8727C118.048 32.646 118.253 32.3924 118.479 32.1118C118.717 31.8312 118.954 31.5507 119.191 31.2701C119.753 30.601 120.379 29.8509 121.069 29.0199L117.233 24.6006C116.952 24.2769 116.725 24.0341 116.553 23.8722C116.391 23.6995 116.229 23.5754 116.067 23.4999C115.905 23.4135 115.722 23.365 115.517 23.3542C115.312 23.3434 115.037 23.338 114.691 23.338V21.8973Z" fill="#F9F9F9"/>
</svg>
